<svg xmlns="http://www.w3.org/2000/svg" viewBox="0 0 128 128" role="img" aria-label="Incentra">
  <defs>
    <linearGradient id="tileGradient" x1="16" y1="14" x2="112" y2="116" gradientUnits="userSpaceOnUse">
      <stop offset="0" stop-color="#20a7ff"/>
      <stop offset="0.48" stop-color="#0176d3"/>
      <stop offset="1" stop-color="#032d60"/>
    </linearGradient>
    <linearGradient id="markGradient" x1="36" y1="36" x2="94" y2="92" gradientUnits="userSpaceOnUse">
      <stop offset="0" stop-color="#ffffff"/>
      <stop offset="1" stop-color="#bfe4ff"/>
    </linearGradient>
    <filter id="softShadow" x="-20%" y="-20%" width="140%" height="140%">
      <feDropShadow dx="0" dy="8" stdDeviation="8" flood-color="#032d60" flood-opacity="0.22"/>
    </filter>
  </defs>
  <rect width="128" height="128" rx="30" fill="#f8fbff"/>
  <rect x="14" y="14" width="100" height="100" rx="28" fill="url(#tileGradient)" filter="url(#softShadow)"/>
  <circle cx="38" cy="37" r="9" fill="#ffffff" opacity="0.16"/>
  <circle cx="93" cy="30" r="15" fill="#ffffff" opacity="0.1"/>
  <path d="M34 84h60" stroke="#ffffff" stroke-width="8" stroke-linecap="round" opacity="0.28"/>
  <rect x="36" y="65" width="12" height="19" rx="5" fill="#dff3ff"/>
  <rect x="56" y="54" width="12" height="30" rx="5" fill="#ffffff"/>
  <rect x="76" y="42" width="12" height="42" rx="5" fill="#dff3ff"/>
  <path
    d="M35 67c13-1 21-9 29-18 8 7 15 9 25 2"
    fill="none"
    stroke="url(#markGradient)"
    stroke-width="8"
    stroke-linecap="round"
    stroke-linejoin="round"
  />
  <path d="M88 51l-1-16 14 7z" fill="#ffffff"/>
</svg>
